<svg xmlns="http://www.w3.org/2000/svg" xmlns:xlink="http://www.w3.org/1999/xlink" width="64" zoomAndPan="magnify" viewBox="0 0 48 48" height="64" preserveAspectRatio="xMidYMid meet" version="1.0"><defs><clipPath id="c2d588c420"><path d="M 0.488281 0 L 47.507812 0 L 47.507812 47.019531 L 0.488281 47.019531 Z M 0.488281 0 " clip-rule="nonzero"/></clipPath><clipPath id="d89ea90275"><path d="M 7 6.683594 L 40.796875 6.683594 L 40.796875 40.476562 L 7 40.476562 Z M 7 6.683594 " clip-rule="nonzero"/></clipPath></defs><g clip-path="url(#c2d588c420)"><path fill="#ffffff" d="M 0.488281 0 L 47.511719 0 L 47.511719 47.019531 L 0.488281 47.019531 Z M 0.488281 0 " fill-opacity="1" fill-rule="nonzero"/><path fill="#e6d1b3" d="M 0.488281 0 L 47.511719 0 L 47.511719 47.019531 L 0.488281 47.019531 Z M 0.488281 0 " fill-opacity="1" fill-rule="nonzero"/></g><path fill="#8b1a14" d="M 32.519531 14.609375 C 32.582031 14.546875 32.648438 14.484375 32.660156 14.464844 C 32.871094 14.210938 33.042969 13.917969 33.171875 13.617188 C 33.527344 12.785156 33.585938 11.9375 33.46875 11.046875 C 33.433594 10.78125 33.390625 10.515625 33.347656 10.246094 C 33.34375 10.214844 33.335938 10.023438 33.296875 10.011719 C 33.269531 10.003906 33.179688 10.253906 33.171875 10.273438 C 33.042969 10.582031 32.90625 10.890625 32.757812 11.191406 C 32.339844 12.027344 31.941406 12.898438 31.886719 13.84375 C 31.867188 14.167969 31.882812 14.609375 32.128906 14.863281 C 31.875 16.539062 32.195312 18.199219 32.269531 19.878906 C 32.238281 19.722656 32.199219 19.570312 32.15625 19.417969 C 31.777344 18.070312 31.046875 16.9375 30.007812 16.015625 C 29.78125 15.8125 29.550781 15.621094 29.316406 15.433594 C 29.289062 15.414062 29.128906 15.253906 29.089844 15.28125 C 29.039062 15.316406 29.117188 15.628906 29.125 15.679688 C 29.191406 16.113281 29.273438 16.550781 29.339844 16.984375 C 29.558594 18.386719 30.292969 19.601562 31.25 20.617188 C 31.492188 20.871094 31.871094 21.339844 32.246094 21.464844 C 32.113281 22.972656 31.652344 24.394531 30.964844 25.730469 C 31.011719 25.535156 31.050781 25.335938 31.085938 25.136719 C 31.242188 24.296875 31.410156 23.1875 31.085938 22.339844 C 31.136719 22.3125 31.183594 22.269531 31.226562 22.222656 C 31.410156 22 31.378906 21.671875 31.15625 21.488281 C 30.9375 21.304688 30.609375 21.335938 30.425781 21.558594 C 30.242188 21.78125 30.273438 22.109375 30.492188 22.289062 C 30.566406 22.351562 30.652344 22.390625 30.742188 22.402344 C 31.082031 23.199219 30.902344 24.269531 30.75 25.074219 C 30.730469 25.179688 30.710938 25.289062 30.6875 25.398438 C 30.753906 24.320312 30.632812 23.207031 30.199219 22.214844 C 30.140625 22.078125 29.839844 21.269531 29.625 21.273438 C 29.566406 21.277344 29.558594 21.566406 29.550781 21.605469 C 29.496094 21.976562 29.402344 22.34375 29.300781 22.707031 C 28.960938 23.957031 28.972656 25.101562 29.453125 26.332031 C 29.589844 26.6875 29.886719 26.976562 30.027344 27.316406 C 29.621094 27.945312 29.203125 28.566406 28.792969 29.191406 C 28.789062 29.085938 28.785156 28.976562 28.78125 28.871094 C 28.75 28.226562 28.640625 27.597656 28.40625 26.996094 C 28.398438 26.984375 28.390625 26.96875 28.382812 26.957031 C 28.394531 26.945312 28.40625 26.933594 28.417969 26.917969 C 28.601562 26.699219 28.570312 26.371094 28.347656 26.1875 C 28.128906 26.003906 27.800781 26.035156 27.617188 26.257812 C 27.433594 26.476562 27.464844 26.804688 27.6875 26.988281 C 27.800781 27.082031 27.945312 27.121094 28.082031 27.105469 C 28.082031 27.109375 28.085938 27.117188 28.085938 27.121094 C 28.308594 27.6875 28.410156 28.277344 28.4375 28.886719 C 28.449219 29.097656 28.457031 29.308594 28.457031 29.519531 C 28.460938 29.550781 28.441406 29.597656 28.429688 29.636719 C 28.414062 29.695312 28.402344 29.75 28.40625 29.789062 L 28.40625 29.792969 C 28.023438 30.398438 27.660156 31.015625 27.34375 31.664062 C 27.140625 32.066406 27.449219 32.210938 27.648438 31.8125 C 27.929688 31.246094 28.246094 30.699219 28.578125 30.160156 C 28.691406 30.113281 28.8125 30.066406 28.824219 30.0625 C 29.339844 29.875 29.910156 29.78125 30.453125 29.726562 C 31.730469 29.597656 32.726562 29.171875 33.460938 28.078125 C 33.574219 27.910156 34.03125 27.308594 33.957031 27.078125 C 33.953125 27.058594 33.660156 27.183594 33.640625 27.191406 C 33.273438 27.324219 32.910156 27.464844 32.550781 27.609375 C 31.726562 27.945312 30.925781 28.316406 30.125 28.699219 C 29.800781 28.855469 29.496094 28.988281 29.21875 29.164062 C 29.699219 28.433594 30.191406 27.710938 30.652344 26.96875 C 31.160156 26.15625 31.585938 25.3125 31.910156 24.4375 C 32.011719 24.445312 32.183594 24.476562 32.25 24.476562 C 32.574219 24.460938 32.890625 24.402344 33.203125 24.320312 C 34.519531 23.96875 35.632812 23.050781 36.382812 21.925781 C 36.625 21.5625 36.855469 21.179688 37.042969 20.78125 C 37.070312 20.726562 37.214844 20.472656 37.144531 20.410156 C 37.109375 20.378906 36.859375 20.609375 36.828125 20.632812 C 36.503906 20.871094 36.140625 21.042969 35.789062 21.238281 C 34.683594 21.855469 33.546875 22.515625 32.601562 23.375 C 32.710938 23.175781 32.824219 22.976562 32.941406 22.777344 C 33.472656 21.878906 34.023438 21.03125 34.84375 20.375 C 34.847656 20.371094 34.847656 20.371094 34.851562 20.367188 C 35.070312 20.503906 35.363281 20.460938 35.53125 20.257812 C 35.714844 20.039062 35.683594 19.710938 35.460938 19.527344 C 35.238281 19.34375 34.910156 19.375 34.730469 19.597656 C 34.609375 19.742188 34.582031 19.933594 34.640625 20.101562 C 34.636719 20.101562 34.632812 20.105469 34.628906 20.105469 C 33.777344 20.792969 33.199219 21.667969 32.644531 22.601562 C 32.523438 22.8125 32.40625 23.023438 32.289062 23.234375 C 32.488281 22.441406 32.609375 21.621094 32.625 20.777344 C 32.640625 20.117188 32.59375 19.460938 32.535156 18.804688 C 32.550781 18.765625 32.582031 18.660156 32.605469 18.621094 C 32.6875 18.496094 32.777344 18.375 32.875 18.261719 C 33.152344 17.9375 33.476562 17.65625 33.796875 17.378906 C 34.855469 16.46875 35.671875 15.601562 36.144531 14.253906 C 36.253906 13.949219 36.347656 13.636719 36.398438 13.316406 C 36.40625 13.277344 36.464844 13.035156 36.425781 13.003906 C 36.410156 12.988281 36.128906 13.265625 36.109375 13.28125 C 35.769531 13.578125 35.40625 13.851562 35.050781 14.128906 C 34.226562 14.769531 33.730469 15.597656 33.21875 16.488281 C 33.074219 16.738281 32.9375 16.972656 32.816406 17.199219 C 32.863281 16.941406 32.921875 16.683594 32.988281 16.429688 C 33.277344 15.375 33.671875 14.355469 34.269531 13.4375 C 34.460938 13.488281 34.671875 13.429688 34.808594 13.265625 C 34.988281 13.046875 34.960938 12.71875 34.738281 12.535156 C 34.515625 12.351562 34.1875 12.382812 34.003906 12.605469 C 33.851562 12.792969 33.847656 13.058594 33.988281 13.246094 C 33.371094 14.195312 32.960938 15.246094 32.660156 16.339844 C 32.558594 16.714844 32.484375 17.09375 32.417969 17.476562 C 32.347656 16.523438 32.328125 15.570312 32.519531 14.609375 Z M 32.519531 14.609375 " fill-opacity="1" fill-rule="evenodd"/><g clip-path="url(#d89ea90275)"><path fill="#8b1a14" d="M 28.960938 31.035156 L 26.699219 30.210938 L 26.074219 31.761719 L 17.089844 11.542969 C 16.691406 10.644531 16.472656 9.929688 16.441406 9.398438 C 16.441406 8.632812 16.757812 8.148438 17.390625 7.949219 C 18.054688 7.78125 19.003906 7.699219 20.234375 7.699219 L 20.234375 6.703125 L 7.003906 6.703125 L 7.003906 7.699219 C 8.167969 7.699219 9.070312 7.964844 9.703125 8.5 C 10.265625 8.996094 10.800781 9.730469 11.296875 10.695312 L 24.628906 40.296875 L 25.277344 40.296875 Z M 34.433594 10.382812 L 36.824219 11.253906 C 37.382812 9.847656 37.960938 8.910156 38.554688 8.449219 C 39.222656 7.949219 40.035156 7.699219 41 7.699219 L 41 6.703125 L 30.765625 6.703125 L 30.765625 7.699219 C 33.230469 7.699219 34.460938 8.449219 34.460938 9.945312 C 34.460938 10.085938 34.453125 10.230469 34.433594 10.382812 Z M 34.433594 10.382812 " fill-opacity="1" fill-rule="nonzero"/></g></svg>